<svg width="512" height="512" viewBox="0 0 512 512" fill="none" xmlns="http://www.w3.org/2000/svg">
<circle cx="256" cy="256" r="256" fill="#00AB55"/>
<path d="M110.9 376V127.5H216.25C227.683 127.5 238.183 129.833 247.75 134.5C257.55 139.167 265.95 145.467 272.95 153.4C279.95 161.333 285.433 170.2 289.4 180C293.367 189.8 295.35 199.833 295.35 210.1C295.35 224.1 292.083 237.4 285.55 250C279.017 262.6 269.917 272.867 258.25 280.8C246.817 288.733 233.4 292.7 218 292.7H159.2V376H110.9ZM159.2 250.35H215.2C224.067 250.35 231.417 246.733 237.25 239.5C243.317 232.033 246.35 222.233 246.35 210.1C246.35 197.267 242.967 187.35 236.2 180.35C229.433 173.35 221.733 169.85 213.1 169.85H159.2V250.35ZM433.616 233.2C419.383 233.2 406.666 236 395.466 241.6C384.266 246.967 376.216 254.783 371.316 265.05V376H324.416V192.6H367.466V231.8C373.766 219.2 381.933 209.283 391.966 202.05C402.233 194.817 412.966 190.85 424.166 190.15C429.066 190.15 432.216 190.267 433.616 190.5V233.2Z" fill="white"/>
</svg>
