<svg width="2019" height="512" viewBox="0 0 2019 512" fill="none" xmlns="http://www.w3.org/2000/svg">
<circle cx="256" cy="256" r="256" fill="#00AB55"/>
<path d="M110.9 376V127.5H216.25C227.683 127.5 238.183 129.833 247.75 134.5C257.55 139.167 265.95 145.467 272.95 153.4C279.95 161.333 285.433 170.2 289.4 180C293.367 189.8 295.35 199.833 295.35 210.1C295.35 224.1 292.083 237.4 285.55 250C279.017 262.6 269.917 272.867 258.25 280.8C246.817 288.733 233.4 292.7 218 292.7H159.2V376H110.9ZM159.2 250.35H215.2C224.067 250.35 231.417 246.733 237.25 239.5C243.317 232.033 246.35 222.233 246.35 210.1C246.35 197.267 242.967 187.35 236.2 180.35C229.433 173.35 221.733 169.85 213.1 169.85H159.2V250.35ZM433.616 233.2C419.383 233.2 406.666 236 395.466 241.6C384.266 246.967 376.216 254.783 371.316 265.05V376H324.416V192.6H367.466V231.8C373.766 219.2 381.933 209.283 391.966 202.05C402.233 194.817 412.966 190.85 424.166 190.15C429.066 190.15 432.216 190.267 433.616 190.5V233.2Z" fill="white"/>
<path d="M618.05 379.5C597.983 379.5 580.717 375.183 566.25 366.55C552.017 357.683 541.05 346.017 533.35 331.55C525.65 317.083 521.8 301.45 521.8 284.65C521.8 267.617 525.65 251.867 533.35 237.4C541.283 222.933 552.367 211.383 566.6 202.75C581.067 193.883 598.217 189.45 618.05 189.45C637.883 189.45 654.917 193.883 669.15 202.75C683.617 211.383 694.7 222.933 702.4 237.4C710.1 251.867 713.95 267.617 713.95 284.65C713.95 301.45 710.1 317.083 702.4 331.55C694.7 346.017 683.617 357.683 669.15 366.55C654.917 375.183 637.883 379.5 618.05 379.5ZM570.1 284.65C570.1 295.383 572.2 304.95 576.4 313.35C580.6 321.517 586.317 327.933 593.55 332.6C600.783 337.267 608.95 339.6 618.05 339.6C626.917 339.6 634.967 337.267 642.2 332.6C649.433 327.7 655.15 321.167 659.35 313C663.783 304.6 666 295.033 666 284.3C666 273.8 663.783 264.467 659.35 256.3C655.15 247.9 649.433 241.367 642.2 236.7C634.967 231.8 626.917 229.35 618.05 229.35C608.95 229.35 600.783 231.8 593.55 236.7C586.317 241.367 580.6 247.9 576.4 256.3C572.2 264.467 570.1 273.917 570.1 284.65ZM747.356 167.05V120.5H794.256V167.05H747.356ZM730.556 444.6C721.923 444.6 713.639 443.2 705.706 440.4C697.539 437.833 690.306 433.75 684.006 428.15L704.306 396.3C707.106 398.867 710.373 400.733 714.106 401.9C717.606 403.3 721.223 404 724.956 404C731.023 404 736.273 401.783 740.706 397.35C745.139 393.15 747.356 387.667 747.356 380.9V192.6H794.256V377.4C794.256 390.7 791.456 402.367 785.856 412.4C780.256 422.433 772.556 430.25 762.756 435.85C753.189 441.683 742.456 444.6 730.556 444.6ZM921.916 379.5C902.082 379.5 884.932 375.183 870.466 366.55C856.232 357.917 845.149 346.483 837.216 332.25C829.282 317.783 825.316 302.15 825.316 285.35C825.316 268.083 829.166 252.217 836.866 237.75C844.799 223.05 855.999 211.383 870.466 202.75C884.932 193.883 902.199 189.45 922.266 189.45C942.332 189.45 959.482 193.883 973.716 202.75C987.949 211.383 998.799 222.933 1006.27 237.4C1013.97 251.633 1017.82 267.033 1017.82 283.6C1017.82 289.667 1017.47 294.917 1016.77 299.35H875.016C876.182 313.583 881.432 324.783 890.766 332.95C900.332 341.117 911.299 345.2 923.666 345.2C932.999 345.2 941.749 342.983 949.916 338.55C958.316 333.883 964.032 327.817 967.066 320.35L1007.32 331.55C1000.55 345.55 989.699 357.1 974.766 366.2C959.832 375.067 942.216 379.5 921.916 379.5ZM873.966 269.6H969.866C968.466 255.833 963.216 244.75 954.116 236.35C945.249 227.717 934.399 223.4 921.566 223.4C908.966 223.4 898.116 227.717 889.016 236.35C880.149 244.75 875.132 255.833 873.966 269.6ZM1131.79 379.5C1111.95 379.5 1094.8 375.067 1080.34 366.2C1065.87 357.333 1054.67 345.667 1046.74 331.2C1038.8 316.733 1034.84 301.1 1034.84 284.3C1034.84 267.267 1038.69 251.517 1046.39 237.05C1054.32 222.583 1065.52 211.033 1079.99 202.4C1094.45 193.767 1111.6 189.45 1131.44 189.45C1151.5 189.45 1168.54 193.767 1182.54 202.4C1196.77 211.033 1207.39 222.35 1214.39 236.35L1168.54 250.35C1160.37 236.35 1147.89 229.35 1131.09 229.35C1121.99 229.35 1113.82 231.683 1106.59 236.35C1099.35 240.783 1093.64 247.2 1089.44 255.6C1085.24 263.767 1083.14 273.333 1083.14 284.3C1083.14 295.033 1085.24 304.6 1089.44 313C1093.87 321.167 1099.7 327.7 1106.94 332.6C1114.17 337.267 1122.22 339.6 1131.09 339.6C1139.49 339.6 1147.19 337.617 1154.19 333.65C1161.42 329.45 1166.44 324.2 1169.24 317.9L1215.09 331.9C1208.79 345.667 1198.29 357.1 1183.59 366.2C1169.12 375.067 1151.85 379.5 1131.79 379.5Z" fill="#222425"/>
<path d="M1361.25 366.55C1354.95 369.35 1347.13 372.15 1337.8 374.95C1328.7 377.75 1319.25 379.15 1309.45 379.15C1300.82 379.15 1292.88 377.633 1285.65 374.6C1278.42 371.567 1272.58 366.783 1268.15 360.25C1263.95 353.483 1261.85 344.733 1261.85 334V228.65H1237.7V192.6H1261.85V133.1H1308.75V192.6H1347.25V228.65H1308.75V318.25C1308.75 324.55 1310.38 329.1 1313.65 331.9C1317.15 334.7 1321.35 336.1 1326.25 336.1C1331.15 336.1 1335.93 335.283 1340.6 333.65C1345.27 332.017 1349 330.617 1351.8 329.45L1361.25 366.55ZM1467.98 379.5C1447.92 379.5 1430.65 375.183 1416.18 366.55C1401.95 357.683 1390.98 346.017 1383.28 331.55C1375.58 317.083 1371.73 301.45 1371.73 284.65C1371.73 267.617 1375.58 251.867 1383.28 237.4C1391.22 222.933 1402.3 211.383 1416.53 202.75C1431 193.883 1448.15 189.45 1467.98 189.45C1487.82 189.45 1504.85 193.883 1519.08 202.75C1533.55 211.383 1544.63 222.933 1552.33 237.4C1560.03 251.867 1563.88 267.617 1563.88 284.65C1563.88 301.45 1560.03 317.083 1552.33 331.55C1544.63 346.017 1533.55 357.683 1519.08 366.55C1504.85 375.183 1487.82 379.5 1467.98 379.5ZM1420.03 284.65C1420.03 295.383 1422.13 304.95 1426.33 313.35C1430.53 321.517 1436.25 327.933 1443.48 332.6C1450.72 337.267 1458.88 339.6 1467.98 339.6C1476.85 339.6 1484.9 337.267 1492.13 332.6C1499.37 327.7 1505.08 321.167 1509.28 313C1513.72 304.6 1515.93 295.033 1515.93 284.3C1515.93 273.8 1513.72 264.467 1509.28 256.3C1505.08 247.9 1499.37 241.367 1492.13 236.7C1484.9 231.8 1476.85 229.35 1467.98 229.35C1458.88 229.35 1450.72 231.8 1443.48 236.7C1436.25 241.367 1430.53 247.9 1426.33 256.3C1422.13 264.467 1420.03 273.917 1420.03 284.65ZM1704.74 233.2C1690.51 233.2 1677.79 236 1666.59 241.6C1655.39 246.967 1647.34 254.783 1642.44 265.05V376H1595.54V192.6H1638.59V231.8C1644.89 219.2 1653.06 209.283 1663.09 202.05C1673.36 194.817 1684.09 190.85 1695.29 190.15C1700.19 190.15 1703.34 190.267 1704.74 190.5V233.2ZM1734.74 411.7C1743.37 414.033 1750.37 415.2 1755.74 415.2C1762.04 415.2 1767.06 412.517 1770.79 407.15C1774.76 402.017 1779.19 391.633 1784.09 376L1711.64 192.6H1760.29L1809.64 328.05L1853.04 192.6H1897.84L1820.84 412.4C1816.64 425 1809.06 435.383 1798.09 443.55C1787.36 451.95 1774.06 456.15 1758.19 456.15C1750.49 456.15 1742.67 454.867 1734.74 452.3V411.7Z" fill="#F3826F"/>
</svg>
