<svg width="2090" height="512" viewBox="0 0 2090 512" fill="none" xmlns="http://www.w3.org/2000/svg">
<circle cx="256" cy="256" r="256" fill="#00AB55"/>
<path d="M194.1 141C215.8 141 234.583 144.617 250.45 151.85C266.55 159.083 278.917 169.35 287.55 182.65C296.183 195.95 300.5 211.7 300.5 229.9C300.5 247.867 296.183 263.617 287.55 277.15C278.917 290.45 266.55 300.717 250.45 307.95C234.583 314.95 215.8 318.45 194.1 318.45H144.75V386H88.05V141H194.1ZM190.95 272.25C207.983 272.25 220.933 268.633 229.8 261.4C238.667 253.933 243.1 243.433 243.1 229.9C243.1 216.133 238.667 205.633 229.8 198.4C220.933 190.933 207.983 187.2 190.95 187.2H144.75V272.25H190.95ZM389.28 222.55C395.813 213.45 404.563 206.567 415.53 201.9C426.73 197.233 439.563 194.9 454.03 194.9V245.3C447.963 244.833 443.88 244.6 441.78 244.6C426.146 244.6 413.896 249.033 405.03 257.9C396.163 266.533 391.73 279.6 391.73 297.1V386H337.13V197.7H389.28V222.55Z" fill="white"/>
<path d="M626.8 388.8C606.967 388.8 589.117 384.717 573.25 376.55C557.617 368.15 545.367 356.6 536.5 341.9C527.633 327.2 523.2 310.517 523.2 291.85C523.2 273.183 527.633 256.5 536.5 241.8C545.367 227.1 557.617 215.667 573.25 207.5C589.117 199.1 606.967 194.9 626.8 194.9C646.633 194.9 664.367 199.1 680 207.5C695.633 215.667 707.883 227.1 716.75 241.8C725.617 256.5 730.05 273.183 730.05 291.85C730.05 310.517 725.617 327.2 716.75 341.9C707.883 356.6 695.633 368.15 680 376.55C664.367 384.717 646.633 388.8 626.8 388.8ZM626.8 344C640.8 344 652.233 339.333 661.1 330C670.2 320.433 674.75 307.717 674.75 291.85C674.75 275.983 670.2 263.383 661.1 254.05C652.233 244.483 640.8 239.7 626.8 239.7C612.8 239.7 601.25 244.483 592.15 254.05C583.05 263.383 578.5 275.983 578.5 291.85C578.5 307.717 583.05 320.433 592.15 330C601.25 339.333 612.8 344 626.8 344ZM752.546 456.7C733.412 456.7 718.829 453.2 708.796 446.2L723.496 406.65C729.796 411.083 737.496 413.3 746.596 413.3C753.596 413.3 759.079 410.967 763.046 406.3C767.012 401.867 768.996 395.1 768.996 386V197.7H823.596V385.65C823.596 407.583 817.296 424.85 804.696 437.45C792.329 450.283 774.946 456.7 752.546 456.7ZM796.296 171.45C786.262 171.45 778.096 168.533 771.796 162.7C765.496 156.867 762.346 149.633 762.346 141C762.346 132.367 765.496 125.133 771.796 119.3C778.096 113.467 786.262 110.55 796.296 110.55C806.329 110.55 814.496 113.35 820.796 118.95C827.096 124.55 830.246 131.55 830.246 139.95C830.246 149.05 827.096 156.633 820.796 162.7C814.496 168.533 806.329 171.45 796.296 171.45ZM1058.32 292.55C1058.32 293.25 1057.97 298.15 1057.27 307.25H914.82C917.387 318.917 923.453 328.133 933.02 334.9C942.587 341.667 954.487 345.05 968.72 345.05C978.52 345.05 987.153 343.65 994.62 340.85C1002.32 337.817 1009.44 333.15 1015.97 326.85L1045.02 358.35C1027.29 378.65 1001.39 388.8 967.32 388.8C946.087 388.8 927.303 384.717 910.97 376.55C894.637 368.15 882.037 356.6 873.17 341.9C864.303 327.2 859.87 310.517 859.87 291.85C859.87 273.417 864.187 256.85 872.82 242.15C881.687 227.217 893.703 215.667 908.87 207.5C924.27 199.1 941.42 194.9 960.32 194.9C978.753 194.9 995.437 198.867 1010.37 206.8C1025.3 214.733 1036.97 226.167 1045.37 241.1C1054 255.8 1058.32 272.95 1058.32 292.55ZM960.67 236.2C948.303 236.2 937.92 239.7 929.52 246.7C921.12 253.7 915.987 263.267 914.12 275.4H1006.87C1005 263.5 999.87 254.05 991.47 247.05C983.07 239.817 972.803 236.2 960.67 236.2ZM1185.67 388.8C1165.6 388.8 1147.52 384.717 1131.42 376.55C1115.55 368.15 1103.07 356.6 1093.97 341.9C1085.1 327.2 1080.67 310.517 1080.67 291.85C1080.67 273.183 1085.1 256.5 1093.97 241.8C1103.07 227.1 1115.55 215.667 1131.42 207.5C1147.52 199.1 1165.6 194.9 1185.67 194.9C1205.5 194.9 1222.77 199.1 1237.47 207.5C1252.4 215.667 1263.25 227.45 1270.02 242.85L1227.67 265.6C1217.87 248.333 1203.75 239.7 1185.32 239.7C1171.09 239.7 1159.3 244.367 1149.97 253.7C1140.64 263.033 1135.97 275.75 1135.97 291.85C1135.97 307.95 1140.64 320.667 1149.97 330C1159.3 339.333 1171.09 344 1185.32 344C1203.99 344 1218.1 335.367 1227.67 318.1L1270.02 341.2C1263.25 356.133 1252.4 367.8 1237.47 376.2C1222.77 384.6 1205.5 388.8 1185.67 388.8Z" fill="#222425"/>
<path d="M1447.65 376.9C1442.28 380.867 1435.63 383.9 1427.7 386C1420 387.867 1411.83 388.8 1403.2 388.8C1380.8 388.8 1363.42 383.083 1351.05 371.65C1338.92 360.217 1332.85 343.417 1332.85 321.25V243.9H1303.8V201.9H1332.85V156.05H1387.45V201.9H1434.35V243.9H1387.45V320.55C1387.45 328.483 1389.43 334.667 1393.4 339.1C1397.6 343.3 1403.43 345.4 1410.9 345.4C1419.53 345.4 1426.88 343.067 1432.95 338.4L1447.65 376.9ZM1562.09 388.8C1542.26 388.8 1524.41 384.717 1508.54 376.55C1492.91 368.15 1480.66 356.6 1471.79 341.9C1462.92 327.2 1458.49 310.517 1458.49 291.85C1458.49 273.183 1462.92 256.5 1471.79 241.8C1480.66 227.1 1492.91 215.667 1508.54 207.5C1524.41 199.1 1542.26 194.9 1562.09 194.9C1581.92 194.9 1599.66 199.1 1615.29 207.5C1630.92 215.667 1643.17 227.1 1652.04 241.8C1660.91 256.5 1665.34 273.183 1665.34 291.85C1665.34 310.517 1660.91 327.2 1652.04 341.9C1643.17 356.6 1630.92 368.15 1615.29 376.55C1599.66 384.717 1581.92 388.8 1562.09 388.8ZM1562.09 344C1576.09 344 1587.52 339.333 1596.39 330C1605.49 320.433 1610.04 307.717 1610.04 291.85C1610.04 275.983 1605.49 263.383 1596.39 254.05C1587.52 244.483 1576.09 239.7 1562.09 239.7C1548.09 239.7 1536.54 244.483 1527.44 254.05C1518.34 263.383 1513.79 275.983 1513.79 291.85C1513.79 307.717 1518.34 320.433 1527.44 330C1536.54 339.333 1548.09 344 1562.09 344ZM1753.98 222.55C1760.52 213.45 1769.27 206.567 1780.23 201.9C1791.43 197.233 1804.27 194.9 1818.73 194.9V245.3C1812.67 244.833 1808.58 244.6 1806.48 244.6C1790.85 244.6 1778.6 249.033 1769.73 257.9C1760.87 266.533 1756.43 279.6 1756.43 297.1V386H1701.83V197.7H1753.98V222.55ZM2044.59 197.7L1959.54 397.55C1950.91 419.25 1940.18 434.533 1927.34 443.4C1914.74 452.267 1899.46 456.7 1881.49 456.7C1871.69 456.7 1862.01 455.183 1852.44 452.15C1842.88 449.117 1835.06 444.917 1828.99 439.55L1848.94 400.7C1853.14 404.433 1857.93 407.35 1863.29 409.45C1868.89 411.55 1874.38 412.6 1879.74 412.6C1887.21 412.6 1893.28 410.733 1897.94 407C1902.61 403.5 1906.81 397.55 1910.54 389.15L1911.24 387.4L1829.69 197.7H1886.04L1938.89 325.45L1992.09 197.7H2044.59Z" fill="#F3826F"/>
</svg>
